<?xml version="1.0" standalone="no"?>
<!DOCTYPE svg PUBLIC "-//W3C//DTD SVG 20010904//EN"
 "http://www.w3.org/TR/2001/REC-SVG-20010904/DTD/svg10.dtd">
<svg version="1.0" xmlns="http://www.w3.org/2000/svg"
 width="512.000000pt" height="512.000000pt" viewBox="0 0 512.000000 512.000000"
 preserveAspectRatio="xMidYMid meet">

<g transform="translate(0.000000,512.000000) scale(0.100000,-0.100000)"
fill="#000000" stroke="none">
<path d="M4330 4780 c-11 -11 -20 -28 -20 -37 0 -10 -11 -41 -24 -69 -24 -53
-59 -84 -111 -101 -16 -5 -37 -21 -45 -35 -18 -34 -6 -50 66 -84 63 -30 86
-59 109 -136 19 -68 36 -85 72 -72 19 7 31 24 48 71 32 89 50 112 111 140 91
42 94 81 8 119 -62 27 -96 68 -119 144 -25 80 -56 99 -95 60z m69 -298 l-33
-39 -35 36 -36 36 34 41 35 40 34 -38 34 -37 -33 -39z"/>
<path d="M2957 4662 c-20 -22 -22 -53 -5 -70 8 -8 51 -12 128 -12 310 0 583
-101 804 -298 378 -337 498 -884 297 -1352 -104 -243 -314 -462 -560 -587 -77
-39 -218 -86 -311 -104 -84 -16 -336 -16 -420 0 -238 46 -443 155 -621 331
-215 212 -330 473 -345 785 -10 205 28 381 126 580 107 215 287 399 502 510
94 49 116 72 98 105 -20 37 -54 35 -136 -9 -208 -113 -357 -247 -482 -434
l-45 -67 -271 2 -270 3 -32 223 c-18 123 -35 234 -38 247 -8 32 -63 94 -95
108 -14 6 -111 14 -216 19 -104 5 -243 11 -308 14 -131 6 -147 1 -147 -47 0
-39 24 -49 119 -49 l81 0 0 -100 0 -100 -311 0 c-195 0 -318 4 -330 10 -16 9
-19 22 -19 85 0 103 1 105 70 105 59 0 90 18 90 52 0 49 -132 68 -197 28 -50
-30 -63 -66 -63 -175 0 -121 16 -159 74 -186 37 -17 72 -19 387 -19 288 0 348
2 365 15 20 15 194 22 194 7 0 -4 74 -527 165 -1162 91 -635 165 -1157 165
-1161 0 -3 -51 -9 -112 -12 -164 -9 -254 -40 -373 -130 -185 -140 -273 -394
-216 -619 48 -186 165 -329 334 -409 109 -51 173 -59 477 -59 l275 -1 23 -48
c67 -143 226 -241 392 -241 166 0 325 98 392 241 l23 48 307 1 306 0 22 -46
c38 -76 122 -159 207 -201 65 -32 86 -37 163 -41 152 -7 278 47 369 161 172
214 102 542 -142 662 -137 68 -258 69 -394 6 -67 -32 -175 -129 -188 -170 -6
-21 -12 -21 -340 -21 l-333 0 -21 33 c-33 53 -126 135 -182 162 -29 13 -83 29
-121 36 -163 29 -340 -50 -436 -194 l-26 -38 -295 3 c-328 3 -334 4 -409 72
-55 51 -112 46 -112 -9 0 -31 76 -100 145 -132 l60 -28 288 -3 c253 -3 288 -5
283 -19 -3 -8 -6 -41 -6 -74 l0 -59 -237 0 c-131 0 -269 5 -308 10 -270 39
-467 303 -426 570 14 92 63 198 122 264 109 122 291 190 453 168 l50 -7 11
-66 11 -67 -121 -4 c-105 -4 -128 -8 -182 -32 -41 -19 -80 -47 -113 -82 -53
-56 -56 -64 -40 -95 18 -33 64 -25 105 20 20 22 60 50 88 63 l52 23 1695 2
c932 2 1709 5 1727 8 43 8 87 46 106 92 8 21 84 522 168 1113 l153 1076 -24
49 c-29 56 -60 83 -116 95 -21 5 -192 10 -380 10 l-341 0 -45 68 c-161 241
-388 416 -658 506 -136 45 -265 66 -416 66 -104 0 -123 -2 -137 -18z m-1698
-147 c17 -17 27 -66 59 -288 22 -148 45 -274 51 -280 9 -9 92 -13 285 -15
l274 -3 -26 -65 -25 -64 -223 0 c-203 0 -224 -2 -245 -19 l-24 -19 33 -231
c18 -127 35 -238 39 -247 10 -27 50 -34 208 -34 85 0 156 -3 158 -7 3 -5 8
-34 11 -65 l7 -58 -148 0 c-174 0 -191 -4 -200 -39 -11 -41 62 -530 81 -550
15 -14 54 -16 308 -19 l291 -3 58 -53 c32 -30 75 -66 97 -82 l39 -28 11 -140
c7 -78 15 -185 18 -239 4 -53 13 -105 20 -115 11 -15 39 -17 286 -20 208 -2
279 1 298 11 25 12 25 15 28 145 l3 132 69 0 69 0 3 -132 c3 -130 3 -133 28
-145 35 -19 563 -14 582 5 10 10 44 341 48 467 0 23 10 36 41 59 22 15 66 52
98 82 l58 53 291 3 c254 3 293 5 308 19 19 20 92 509 81 550 -9 35 -26 39
-200 39 l-148 0 7 58 c3 31 8 60 11 65 2 4 73 7 158 7 158 0 198 7 208 34 4 9
21 120 39 247 l33 231 -24 19 c-21 17 -42 19 -245 19 l-223 0 -25 65 -26 65
334 0 334 0 16 -25 c15 -23 8 -82 -137 -1097 -126 -883 -156 -1075 -171 -1090
-17 -17 -90 -18 -1547 -18 -1667 0 -1553 -4 -1566 53 -12 55 -55 352 -211
1442 -115 809 -171 1175 -180 1185 -11 11 -43 16 -124 18 l-110 4 0 63 0 64
48 4 c26 2 100 4 164 3 103 -1 120 -3 137 -21z m591 -822 c0 -5 -7 -44 -15
-88 -8 -44 -14 -117 -15 -162 l0 -83 -138 0 -139 0 -21 153 c-12 83 -22 160
-22 170 0 15 15 17 175 17 96 0 175 -3 175 -7z m2850 -10 c0 -10 -10 -87 -22
-170 l-21 -153 -139 0 -138 0 0 73 c0 67 -8 142 -25 230 l-7 37 176 0 c161 0
176 -1 176 -17z m-2812 -705 c29 -76 120 -252 156 -303 l36 -50 -211 -3 c-117
-1 -214 0 -216 2 -7 7 -60 386 -55 391 3 3 66 5 139 5 l135 0 16 -42z m2714
37 c5 -5 -48 -384 -55 -391 -2 -2 -100 -3 -216 -2 l-213 3 22 28 c38 48 115
188 149 272 18 44 35 83 38 88 5 8 267 10 275 2z m-2044 -774 c63 -32 226 -84
315 -101 l57 -11 0 -95 0 -94 -214 0 -213 0 -6 48 c-15 120 -20 282 -8 282 6
0 37 -13 69 -29z m1158 -88 c-4 -65 -10 -139 -13 -165 l-6 -48 -213 0 -214 0
0 94 0 95 58 11 c121 24 257 69 332 110 63 34 63 33 56 -97z m-1409 -959 c140
-48 225 -168 226 -319 2 -214 -214 -380 -417 -321 -153 45 -250 169 -249 321
1 153 84 268 231 321 51 18 152 17 209 -2z m1457 -5 c73 -27 148 -96 183 -167
24 -50 28 -68 28 -147 0 -73 -5 -99 -23 -136 -37 -75 -87 -125 -160 -161 -59
-29 -76 -33 -147 -33 -65 1 -91 5 -135 26 -72 34 -135 97 -168 167 -23 48 -27
71 -27 142 0 73 4 93 28 142 34 70 110 140 180 167 70 27 169 27 241 0z m-558
-246 c-3 -21 -6 -55 -6 -75 l0 -38 -280 0 -280 0 0 59 c0 33 -3 66 -6 75 -6
14 24 16 286 16 l293 0 -7 -37z"/>
<path d="M1610 2360 c-11 -11 -20 -26 -20 -32 1 -53 70 -472 79 -481 9 -9 90
-12 286 -12 246 0 276 2 292 17 16 17 16 30 0 254 -13 191 -20 241 -33 255
-16 18 -37 19 -301 19 -270 0 -284 -1 -303 -20z m532 -185 c3 -55 9 -130 12
-168 l6 -67 -207 2 -208 3 -22 150 c-12 83 -22 158 -22 168 -1 16 14 17 217
15 l217 -3 7 -100z"/>
<path d="M3986 2361 c-13 -14 -20 -64 -33 -255 -16 -224 -16 -237 0 -254 16
-15 46 -17 292 -17 196 0 277 3 286 12 9 9 78 428 79 481 0 6 -9 21 -20 32
-19 19 -33 20 -303 20 -264 0 -285 -1 -301 -19z m513 -98 c0 -10 -10 -85 -22
-168 l-22 -150 -209 -3 -208 -2 6 42 c3 24 8 97 12 163 4 66 8 123 11 128 2 4
101 7 219 7 197 0 214 -1 213 -17z"/>
<path d="M2101 1059 c-80 -41 -123 -141 -101 -231 42 -164 251 -212 358 -83
77 94 59 233 -41 302 -55 39 -153 44 -216 12z m142 -90 c96 -49 64 -189 -43
-189 -33 0 -48 6 -71 29 -78 79 16 210 114 160z"/>
<path d="M3555 1063 c-109 -57 -145 -174 -87 -284 22 -43 38 -59 81 -81 66
-35 119 -36 188 -4 150 70 152 290 2 366 -47 25 -141 26 -184 3z m154 -109
c38 -32 49 -80 27 -122 -20 -38 -47 -54 -92 -54 -48 0 -81 25 -95 71 -10 34
-9 44 8 73 36 61 101 75 152 32z"/>
<path d="M421 4646 c-38 -46 25 -111 69 -71 25 23 26 47 2 68 -23 21 -56 22
-71 3z"/>
<path d="M2750 4620 c-15 -28 -4 -59 26 -72 19 -9 28 -8 44 7 22 20 26 55 8
73 -20 20 -66 15 -78 -8z"/>
<path d="M2796 4048 c-11 -16 -16 -46 -16 -100 l0 -78 -42 0 c-67 -1 -108 -44
-108 -114 l0 -36 -83 0 c-92 0 -122 -16 -115 -61 4 -34 43 -49 126 -49 l72 0
0 -80 0 -80 -88 0 c-96 0 -112 -7 -112 -52 0 -38 24 -48 119 -48 l81 0 0 -80
0 -80 -83 0 c-92 0 -122 -16 -115 -61 4 -34 43 -49 126 -49 l72 0 0 -41 c0
-33 6 -47 34 -75 28 -28 42 -34 75 -34 l41 0 0 -78 c0 -87 16 -122 55 -122 39
0 55 35 55 122 l0 78 80 0 80 0 0 -84 c0 -89 11 -116 50 -116 39 0 50 27 50
116 l0 84 80 0 80 0 0 -78 c0 -87 16 -122 55 -122 39 0 55 35 55 122 l0 78 41
0 c33 0 47 6 75 34 28 28 34 42 34 75 l0 41 73 0 c82 0 121 15 125 49 7 45
-23 61 -115 61 l-83 0 0 80 0 80 84 0 c92 0 116 11 116 54 0 38 -19 46 -112
46 l-88 0 0 80 0 80 73 0 c82 0 121 15 125 49 7 45 -23 61 -115 61 l-83 0 0
35 c0 72 -43 115 -115 115 l-35 0 0 78 c0 87 -16 122 -54 122 -42 0 -56 -29
-56 -118 l0 -82 -80 0 -80 0 0 88 c0 95 -7 112 -50 112 -43 0 -50 -17 -50
-112 l0 -88 -80 0 -80 0 0 78 c0 87 -16 122 -55 122 -13 0 -31 -10 -39 -22z
m674 -648 l0 -370 -370 0 -370 0 0 370 0 370 370 0 370 0 0 -370z"/>
<path d="M2867 3632 c-15 -16 -17 -47 -17 -230 0 -199 1 -213 20 -232 19 -19
33 -20 230 -20 197 0 211 1 230 20 19 19 20 33 20 228 0 172 -3 211 -16 230
-15 22 -19 22 -233 22 -198 0 -219 -2 -234 -18z m381 -229 l-3 -148 -145 0
-145 0 -3 148 -3 147 151 0 151 0 -3 -147z"/>
<path d="M723 2828 c-6 -7 -18 -35 -27 -63 -27 -83 -51 -114 -111 -141 -94
-43 -95 -78 -5 -124 71 -36 96 -67 117 -143 19 -65 41 -86 78 -69 16 8 28 27
39 65 23 80 53 118 118 149 59 28 79 58 58 83 -7 8 -36 26 -66 39 -59 27 -85
61 -109 140 -8 27 -20 55 -26 62 -14 17 -53 18 -66 2z m71 -235 l28 -32 -32
-39 -33 -39 -34 38 -35 38 34 40 c18 22 35 37 38 33 3 -4 18 -21 34 -39z"/>
<path d="M936 1361 c-38 -41 5 -102 54 -78 34 17 39 60 8 81 -29 21 -41 20
-62 -3z"/>
</g>
</svg>
